<?xml version="1.0" standalone="no"?>
<!DOCTYPE svg PUBLIC "-//W3C//DTD SVG 20010904//EN"
 "http://www.w3.org/TR/2001/REC-SVG-20010904/DTD/svg10.dtd">
<svg version="1.0" xmlns="http://www.w3.org/2000/svg"
 width="500.000000pt" height="500.000000pt" viewBox="0 0 500.000000 500.000000"
 preserveAspectRatio="xMidYMid meet">

<g transform="translate(0.000000,500.000000) scale(0.100000,-0.100000)"
fill="#000000" stroke="none">
<path d="M1641 3443 c46 -60 82 -115 82 -123 -2 -17 -280 -1294 -289 -1322 -5
-17 9 -18 194 -18 l199 0 57 260 57 261 -26 93 c-14 52 -25 96 -25 98 0 3 24
21 54 41 l54 36 20 88 c11 48 35 157 53 241 l33 152 153 0 c116 0 153 -3 153
-12 -1 -7 -20 -101 -43 -208 l-43 -195 -167 -85 c-92 -47 -167 -91 -167 -97 0
-20 212 -827 220 -836 3 -4 58 16 120 45 l114 53 -91 5 -90 5 109 255 c104
241 109 258 104 306 -6 49 -5 51 28 66 31 15 42 36 159 310 110 256 129 310
156 433 17 77 31 150 31 163 0 14 -15 39 -34 58 l-34 34 -612 0 -611 0 82
-107z"/>
<path d="M3016 3532 c-8 -14 -649 -1517 -654 -1535 -4 -16 9 -17 204 -15 l208
3 41 100 c23 55 56 132 73 172 l31 72 -100 115 -99 115 147 3 146 3 114 280
c62 154 118 284 124 290 8 7 10 -78 5 -308 l-7 -318 30 16 c17 8 54 29 81 45
28 17 55 30 60 30 6 0 10 -20 10 -45 0 -44 -2 -46 -56 -81 -31 -20 -115 -65
-188 -101 -72 -36 -118 -62 -102 -58 39 8 215 94 298 144 37 23 69 41 72 41 4
0 6 -22 6 -49 l0 -49 -62 -40 c-35 -22 -102 -60 -150 -83 l-86 -43 -44 29 -43
28 25 -29 25 -28 -35 26 c-19 14 -44 41 -55 59 -16 28 -16 32 -2 20 15 -12 16
-11 6 18 -6 17 -9 37 -6 44 2 6 47 30 98 52 l94 40 -83 3 c-45 2 -119 2 -163
0 l-81 -3 56 -63 c48 -54 55 -66 50 -92 -16 -79 36 -158 151 -225 37 -22 70
-47 72 -56 5 -16 148 -87 158 -78 2 3 -29 23 -70 44 l-75 40 0 53 c0 28 2 52
5 52 2 0 49 -20 102 -43 101 -45 167 -83 216 -123 16 -13 41 -24 57 -24 l28 0
6 628 c4 345 8 696 9 780 l2 152 -322 0 c-177 0 -324 -3 -327 -8z"/>
<path d="M2967 2259 c-13 -46 -7 -102 13 -134 23 -38 57 -65 153 -123 l67 -42
0 49 c0 41 -3 49 -25 59 -43 20 -132 89 -154 121 -12 16 -27 44 -35 61 -13 31
-13 32 -19 9z"/>
<path d="M2581 1861 c-19 -12 -6 -43 16 -39 10 2 18 12 18 22 0 22 -14 29 -34
17z"/>
<path d="M2865 1797 c-14 -20 -15 -20 -35 -2 -19 18 -21 18 -40 0 -20 -18 -20
-18 7 -47 l27 -28 -22 -39 c-28 -50 -28 -53 6 -49 22 2 35 16 70 78 23 41 42
80 42 86 0 22 -40 23 -55 1z"/>
<path d="M1630 1720 c0 -49 4 -90 9 -90 21 0 41 13 41 26 0 20 18 17 32 -6 15
-23 31 -26 47 -7 7 10 7 17 0 24 -7 7 -7 23 2 51 10 35 10 45 -5 67 -14 22
-24 25 -71 25 l-55 0 0 -90z m88 23 c-5 -26 -38 -29 -38 -4 0 15 6 21 21 21
14 0 19 -5 17 -17z"/>
<path d="M1823 1803 l-43 -4 0 -85 0 -84 60 0 c57 0 60 1 60 25 0 22 -4 25
-37 26 -39 1 -38 3 10 13 18 4 27 13 27 26 0 16 -7 20 -37 20 -28 0 -34 3 -23
10 8 5 25 10 38 10 17 0 22 6 22 25 0 18 -5 24 -17 23 -10 -1 -37 -3 -60 -5z"/>
<path d="M2117 1803 c-6 -9 -47 -156 -47 -166 0 -9 45 -9 54 1 5 4 29 7 54 7
44 0 47 2 44 25 -1 13 -12 50 -24 82 -18 52 -24 58 -49 58 -15 0 -30 -3 -32
-7z m38 -93 c3 -5 1 -10 -4 -10 -6 0 -11 5 -11 10 0 6 2 10 4 10 3 0 8 -4 11
-10z"/>
<path d="M2428 1803 c-22 -3 -28 -10 -28 -29 0 -19 5 -24 25 -24 24 0 25 -3
25 -60 0 -57 1 -60 25 -60 23 0 24 4 27 63 3 56 5 62 26 65 16 3 22 10 22 28
0 22 -3 24 -47 23 -27 -1 -60 -4 -75 -6z"/>
<path d="M2570 1719 c0 -88 1 -90 23 -87 21 3 22 8 25 91 l3 87 -26 0 c-25 0
-25 0 -25 -91z"/>
<path d="M2643 1803 c-9 -3 -13 -31 -13 -89 0 -83 0 -84 25 -84 19 0 26 7 33
33 6 25 14 33 35 35 21 3 27 9 27 27 0 22 -3 24 -30 19 -18 -4 -30 -2 -30 4 0
5 16 13 35 16 26 5 35 12 35 26 0 17 -7 20 -52 19 -29 0 -59 -3 -65 -6z"/>
<path d="M3047 1763 c-9 -26 -20 -65 -26 -85 -9 -36 -8 -38 15 -38 13 0 24 5
24 10 0 13 43 13 56 0 11 -11 44 -4 44 9 0 4 -11 38 -23 77 -20 59 -27 69 -49
72 -23 3 -28 -2 -41 -45z m53 -59 c0 -8 -7 -14 -15 -14 -17 0 -18 2 -9 24 7
18 24 12 24 -10z"/>
<path d="M2250 1711 l0 -88 25 5 c14 2 25 11 25 18 0 20 14 17 35 -6 13 -15
22 -17 36 -9 15 8 17 13 8 33 -8 17 -8 29 0 44 30 56 -1 92 -77 92 l-52 0 0
-89z m88 20 c-5 -24 -38 -27 -38 -3 0 10 3 21 6 25 11 11 35 -5 32 -22z"/>
<path d="M3188 1776 c-3 -13 -3 -49 0 -80 4 -46 8 -56 23 -56 17 0 19 8 19 80
0 72 -2 80 -19 80 -12 0 -20 -9 -23 -24z"/>
<path d="M1920 1715 c0 -12 14 -15 65 -15 51 0 65 3 65 15 0 12 -14 15 -65 15
-51 0 -65 -3 -65 -15z"/>
</g>
</svg>
